HIERARCHY
ROOT joint_0
{
	OFFSET 0.000000 0.000000 0.000000
	CHANNELS 6 Xposition Yposition Zposition Zrotation Yrotation Xrotation 
	JOINT joint_1
	{
		OFFSET 0.000000 0.000000 0.000000
		CHANNELS 3 Zrotation Yrotation Xrotation
		JOINT joint_2
		{
			OFFSET 3.811170 -8.520760 0.839290
			CHANNELS 3 Zrotation Yrotation Xrotation
			JOINT joint_3
			{
				OFFSET 2.562200 -7.039590 0.000000
				CHANNELS 3 Zrotation Yrotation Xrotation
				JOINT joint_4
				{
					OFFSET 0.157640 -0.433110 2.322550
					CHANNELS 3 Zrotation Yrotation Xrotation
					End Site
					{
						OFFSET 0.000000 0.000000 0.000000
					}
				}
			}
		}
	}
	JOINT joint_5
	{
		OFFSET 0.000000 0.000000 0.000000
		CHANNELS 3 Zrotation Yrotation Xrotation
		JOINT joint_6
		{
			OFFSET -3.848050 -8.780180 0.839290
			CHANNELS 3 Zrotation Yrotation Xrotation
			JOINT joint_7
			{
				OFFSET -2.568260 -7.056230 0.000000
				CHANNELS 3 Zrotation Yrotation Xrotation
				JOINT joint_8
				{
					OFFSET -0.164730 -0.452590 2.363150
					CHANNELS 3 Zrotation Yrotation Xrotation
					End Site
					{
						OFFSET 0.000000 0.000000 0.000000
					}
				}
			}
		}
	}
	JOINT joint_9
	{
		OFFSET 0.028270 2.035590 -0.193380
		CHANNELS 3 Zrotation Yrotation Xrotation
		JOINT joint_10
		{
			OFFSET 0.056720 2.048850 -0.042750
			CHANNELS 3 Zrotation Yrotation Xrotation
			JOINT joint_11
			{
				OFFSET -0.054170 1.746240 0.172020
				CHANNELS 3 Zrotation Yrotation Xrotation
				JOINT joint_12
				{
					OFFSET 0.104070 1.761360 -0.123970
					CHANNELS 3 Zrotation Yrotation Xrotation
					End Site
					{
						OFFSET 0.000000 0.000000 0.000000
					}
				}
			}
			JOINT joint_13
			{
				OFFSET 3.362410 1.200890 -0.311210
				CHANNELS 3 Zrotation Yrotation Xrotation
				JOINT joint_14
				{
					OFFSET 4.983000 -0.000000 -0.000000
					CHANNELS 3 Zrotation Yrotation Xrotation
					JOINT joint_15
					{
						OFFSET 3.483560 -0.000000 -0.000000
						CHANNELS 3 Zrotation Yrotation Xrotation
						JOINT joint_16
						{
							OFFSET 0.715260 -0.000000 -0.000000
							CHANNELS 3 Zrotation Yrotation Xrotation
							End Site
							{
								OFFSET 0.000000 0.000000 0.000000
							}
						}
					}
				}
			}
			JOINT joint_17
			{
				OFFSET -3.136600 1.374050 -0.404650
				CHANNELS 3 Zrotation Yrotation Xrotation
				JOINT joint_18
				{
					OFFSET -5.241900 -0.000000 -0.000000
					CHANNELS 3 Zrotation Yrotation Xrotation
					JOINT joint_19
					{
						OFFSET -3.444170 -0.000000 -0.000000
						CHANNELS 3 Zrotation Yrotation Xrotation
						JOINT joint_20
						{
							OFFSET -0.622530 -0.000000 -0.000000
							CHANNELS 3 Zrotation Yrotation Xrotation
							End Site
							{
								OFFSET 0.000000 0.000000 0.000000
							}
						}
					}
				}
			}
		}
	}
}
MOTION
Frames: 7
Frame Time: 0.031667
4.847296 15.567984 -2.364512 -5.013435 -25.555210 3.808602 -3.719974 17.182325 -25.550240 -2.940152 14.512849 27.101847 -0.519301 8.547599 -12.018500 0.209909 -1.813748 -5.318831 2.858050 -20.158491 3.550511 21.702102 -14.834511 33.365889 1.460753 -2.521789 -12.358177 0.671954 4.928251 0.164141 0.770880 3.511528 -4.590696 -2.580974 0.224100 -8.727533 7.798724 1.017262 2.867767 -0.721622 0.178543 5.198555 -48.354548 -32.612465 15.828204 70.802393 -60.357442 -37.155663 5.097651 5.501161 -0.476505 -7.002531 0.035118 0.045618 68.026803 25.045207 25.033089 -76.934424 65.816968 -41.048303 3.456475 -2.248803 -7.614431 7.106787 0.023266 0.031664 
4.817107 15.564921 -2.375835 -4.960369 -25.233309 3.832239 -3.116392 19.662660 -25.028886 -4.334119 13.788303 24.267890 -0.796938 7.937883 -11.548454 0.146077 -1.342128 -3.957366 -1.885600 -18.500273 6.665114 25.308278 -14.221601 31.411381 1.093417 -1.525235 -11.467462 0.009191 -0.703106 2.781578 0.685622 3.421272 -4.896174 -2.204695 -0.310335 -9.362071 6.523662 -2.010701 2.543643 -1.561461 0.397638 4.435648 -48.221310 -33.601135 13.416826 76.442279 -62.285875 -40.043602 4.501357 2.043279 -1.172697 -6.976232 0.025257 0.041625 70.718265 26.044057 25.315487 -84.957478 66.597637 -47.005403 3.825538 -1.357072 -4.634697 7.097688 0.015746 0.023192 
4.786918 15.561857 -2.387158 -4.907456 -24.911741 3.856510 -2.997981 20.588144 -24.871725 -4.367244 13.276805 23.016970 -0.926130 8.111498 -12.153921 0.087032 -1.001233 -2.889791 -4.102583 -17.464928 8.229563 26.870978 -13.635836 29.904637 1.121246 -1.217695 -11.395479 -0.012553 -0.550822 2.101749 0.492917 2.844474 -4.331918 -2.092957 -0.680551 -9.582955 5.320841 -3.883855 2.453684 -1.732479 0.903081 3.915595 -49.643221 -34.717974 12.716297 82.334401 -63.220958 -44.835305 1.590361 0.859471 -3.801263 -6.960210 0.016894 0.033555 73.837664 26.170705 24.951430 -92.279524 67.298358 -50.944426 4.614256 -2.591621 2.970211 7.091528 0.009163 0.014263 
4.756367 15.558990 -2.397638 -4.866138 -24.549143 3.883723 -2.887209 21.890804 -25.545259 -4.020484 13.257373 22.573033 -1.218995 8.421007 -12.940932 0.040684 -0.567346 -1.622895 -5.337666 -16.087850 8.932409 27.410269 -13.895186 28.992202 1.302802 -1.298365 -12.193115 -0.033192 -0.457893 1.499075 0.455900 2.756710 -4.326538 -2.088158 -0.654721 -9.766194 3.916163 -4.751657 2.529729 -1.679204 1.792628 3.477562 -51.505383 -36.224809 11.939857 87.698635 -64.078680 -48.302261 -0.833076 -0.528444 -3.710943 -6.950812 0.009388 0.025126 75.296082 26.685808 24.781467 -100.935637 68.022144 -56.363029 1.671705 -1.815664 5.124539 7.080948 0.003053 0.006095 
4.725811 15.556126 -2.408110 -4.825040 -24.186731 3.911492 -3.450945 21.953749 -25.942378 -3.544967 13.228642 22.477200 -1.217186 8.642640 -13.094792 0.007714 -0.208474 -0.585173 -5.916295 -15.225424 9.482388 27.935913 -14.002477 28.721946 1.534265 -1.292820 -12.436292 -0.054606 -0.437329 1.163292 0.439685 2.692319 -4.257878 -2.073820 -0.618785 -10.054102 3.423759 -5.851329 1.484537 -1.457643 2.772972 2.594708 -53.583349 -37.217039 11.542270 92.499682 -64.748289 -51.797665 -0.659610 -1.043086 -4.102470 -6.938804 0.002823 0.019037 77.118099 27.476596 25.409722 -108.064658 67.726460 -60.589994 1.055059 0.099580 5.529839 7.069951 -0.002409 -0.000132 
4.695186 15.553324 -2.417671 -4.793570 -23.777342 3.938570 -3.505663 22.091335 -26.243926 -3.245391 13.330992 22.399870 -1.313216 8.776451 -13.228551 0.000046 0.042617 0.122696 -6.042147 -14.417208 9.553971 28.398210 -14.307526 28.152245 1.826358 -1.434808 -12.878840 -0.077943 -0.493931 1.044324 0.410042 2.592108 -4.085460 -2.038305 -0.541621 -10.031405 2.414771 -6.435475 0.723198 -1.022791 3.291875 1.498590 -54.998007 -38.270381 10.994733 94.464622 -65.472850 -52.257295 -0.694792 -1.774818 -4.315516 -6.929551 -0.002282 0.015069 78.333939 27.764735 25.753779 -115.142798 67.245913 -65.232632 1.506570 0.015474 5.200875 7.064752 -0.007859 -0.005692 
4.664560 15.550523 -2.427211 -4.762252 -23.367880 3.965985 -3.412563 22.353384 -26.688876 -3.133793 13.334582 22.218259 -1.406458 8.533247 -12.740012 0.010800 0.195060 0.610473 -5.809387 -13.542394 9.334214 29.462815 -14.846582 27.838593 2.169591 -1.540737 -13.199187 -0.095737 -0.501797 0.797824 0.345696 2.598917 -3.958988 -2.027383 -0.482916 -9.901275 1.354366 -6.031185 0.376689 -0.758978 3.243879 0.563812 -56.782022 -39.243994 11.242187 96.538538 -65.805549 -53.915609 -0.573217 -2.778664 -3.667250 -6.932578 -0.007276 0.013216 78.589020 28.256231 26.152475 -122.970427 66.702667 -70.044082 1.290765 0.385522 4.748727 7.077596 -0.014271 -0.011753 
